<svg xmlns="http://www.w3.org/2000/svg" viewBox="0 0 400 400"><defs><g id="eye" stroke="none" transform="scale(.92)"><ellipse fill="#000" rx="16.8" ry="17.4"/><ellipse cx="-.5" cy="-6.8" fill="#fff" rx="7.9" ry="5.9"/><ellipse cx="1.1" cy="8.6" fill="#fff" rx="6.6" ry="2.5"/></g><g id="eye-focus" transform="scale(.92)"><ellipse fill="#000" stroke="none" rx="16.8" ry="17.4"/><ellipse cy="-5.6" fill="#fff" stroke="none" rx="8.4" ry="6.8"/><path stroke="#fff" stroke-width="3.4" d="M-7.5 7.4q7.5 5.2 15 0"/></g><g id="eye-cry" stroke="none" transform="scale(.92)"><ellipse fill="#000" rx="16.7" ry="15.7"/><ellipse cx="-.6" cy="-5" fill="#fff" rx="7.8" ry="5"/><path stroke="#fff" stroke-linecap="round" stroke-width="3.8" d="M-6.6 8 7.3 5.8"/></g><g id="tear-cry-l" transform="scale(.92)"><path fill="#fff" stroke="none" d="M-17.2 11.3q-.3 1.6-.2 3.1 0 1.6.9 2.7t2.5 1.6c1 .4 2.3.3 3.1.9q1.5 1.1 2 2.9c.4.9-.1 2.1 0 3.1q.1 1.7.7 3.1a5 5 0 0 0 2.4 2.1q1.5.6 3.1.3T0 29.8q1-1 1.5-2.5c.4-1 0-2.2.5-3.1q.7-1.2 2-1.7c1-.5 2.2-.2 3.2-.7a6 6 0 0 0 2.2-2.3c.5-1 .4-2.2.6-3.3L5.5 7.1 0 5.5l-9.5 1.6Z"/><path fill="none" stroke-width="3.8" d="M-17.2 11.3q-.3 1.6-.2 3.1 0 1.6.9 2.7t2.5 1.6c1 .4 2.3.3 3.1.9q1.5 1.1 2 2.9c.4.9-.1 2.1 0 3.1q.1 1.7.7 3.1a5 5 0 0 0 2.4 2.1q1.5.6 3.1.3T0 29.8q1-1 1.5-2.5c.4-1 0-2.2.5-3.1q.7-1.2 2-1.7c1-.5 2.2-.2 3.2-.7a6 6 0 0 0 2.2-2.3c.5-1 .4-2.2.6-3.3"/></g><g id="tear-cry-r" transform="scale(.92)"><path fill="#fff" stroke="none" d="M-9.5 16.6c.3 1.2.3 2.6 1 3.7q1 1.5 2.7 2.2c1.1.3 2.3-.4 3.5-.4.9.1 2.1-.2 2.8.5.8.8.7 2.2 1 3.3q.3 1.5.8 2.8.9 1.4 2.4 1.9 1.6.6 3.3.3t2.7-1.2q.8-1.1 1.2-2.5c.3-1.2 0-2.4.5-3.5q.4-1.3 1.6-2c1-.5 2.3-.1 3.4-.5a5 5 0 0 0 2.1-1.7q1-1.6 1.4-3.3c.2-1.3-.2-2.5-.4-3.8l-9.2-5.3L0 5.5l-5.2 1.6Z"/><path fill="none" stroke-width="3.8" d="M-9.5 16.6c.3 1.2.3 2.6 1 3.7q1 1.5 2.7 2.2c1.1.3 2.3-.4 3.5-.4.9.1 2.1-.2 2.8.5.8.8.7 2.2 1 3.3q.3 1.5.8 2.8.9 1.4 2.4 1.9 1.6.6 3.3.3t2.7-1.2q.8-1.1 1.2-2.5c.3-1.2 0-2.4.5-3.5q.4-1.3 1.6-2c1-.5 2.3-.1 3.4-.5a5 5 0 0 0 2.1-1.7q1-1.6 1.4-3.3c.2-1.3-.2-2.5-.4-3.8"/></g><g id="blush"><ellipse cx="130.6" cy="207.3" fill="#fdbec7" stroke="none" rx="23.3" ry="15.7"/><path stroke-width="6.4" d="m111.4 211 4.6-9.7m5.8 12.6L126 202m7 11.5 3.9-9.7m6.5 9.4 3.2-8.4"/></g><g id="paw" stroke-width="5"><ellipse fill="#fff" rx="12.5" ry="13.5"/><path stroke-width="4" d="M4.5-12.5Q-1-3 3.5 7"/></g><path id="tear-l" fill="none" stroke-width="3.8" d="M-18.8 13.9c.1 2-.5 4.2.3 6.1s2.7 3.2 4.2 4.7c1.3 1.3 3.3 1.9 4.2 3.5s.5 4 1.4 5.7 1.8 3.9 3.7 4.4c1.5.4 3.1-1 4.2-2.1 1.2-1.3 1.6-3.3 2.5-4.9l3-4.9 3-3.8" transform="scale(.92)"/><path id="tear-r" fill="none" stroke-width="3.8" d="M-10.1 22.1c.7 1.6.8 3.6 2 4.9q1.7 1.4 3.9 1.4c1.5 0 2.7-1.5 4.2-1.4 1.5 0 3.2.6 4.2 1.7 1.3 1.4 1 3.8 2.2 5.2 1 1.3 2.5 2.7 4.2 2.6 1.6 0 3-1.4 3.8-2.7 1-1.7.7-3.8 1.1-5.6l1.3-5.6q.6-2.5 1-5.2 0-2-.2-3.8" transform="scale(.92)"/></defs><g id="chiikawa" fill="none" stroke="#000" stroke-linecap="round" stroke-linejoin="round" stroke-width="7.2"><g id="tremble-0" stroke-width="3.6" display="none"><path d="M59.4 212.7c-.2.4-1 1.7-1.3 2.6a5 5 0 0 0-.5 2.7q0 1.2.9 2.4c.4.8 1.3 1.5 1.6 2.4q.4 1.2.2 2.6c-.1.9-.7 1.8-.8 2.6a5 5 0 0 0 0 2.7q.5 1.3 1.2 2.4l1.4 2.3m25.8-115.3c-.4.4-1.8 1.3-2.5 2.1l-1.7 2.9q-1.1 1.3-2.7 2.1l-3 1.7q-1.2 1.1-2.1 2.7c-.5 1-.9 2.8-1.1 3.3M145.9 74c.5.1 1.9.2 2.7.8s1.4 2.3 2.3 2.8q1.3.7 2.8.2c1-.2 2.1-1.4 3-1.7 1-.3 2.4-.2 2.8-.2m92.7-2.2c-.5.1-1.9.1-2.7.4q-1.3.3-2.4 1.3c-.7.6-1.4 1.8-1.6 2.1m69.9 43.7c.1.5.1 2.2.5 3.1q.9 1.3 2.2 2.2l2.9 1.6q1.5.8 2.6 1.8a9 9 0 0 1 1.3 2.8c.2 1.1 0 2.4.3 3.4q.6 1.5 1.6 2.6c.7.7 1.8 1.1 2.4 1.9q1 1.2 1.6 2.6c.4.9.6 2.5.7 3m11 63.9c.1.5.7 1.9.7 2.8q0 1.4-.7 2.7c-.4.9-1.2 1.6-1.6 2.5q-.5 1.3-.5 2.8c0 .9.6 1.9.7 2.9q.4 1.4.1 2.8-.6 1.3-1.5 2.6l-1.6 2.4c-.4.8-.7 2.1-.8 2.5M77.5 250.2c.1.5.3 2 .8 2.8q.8 1.3 2 2.4c.8.8 2 1.2 2.5 2.1s.2 2.2.5 3.2q.3 1.8 1.1 3c.7.8 2.3 1.3 2.8 1.6"/><path stroke-width="4.8" d="M57.4 205.3zm-3.1-3.9zm2.5-5.8zm10.7-44.9zm.1-4.9zm4.6-3.7zm21.7-27.7zm6.5-2.1zM171 87.8zm62.8 5.2zm3.4-.8zm49.7.2zm-.9 4.4zm5.3 6.2zm18.9 14.3zm24.2 37.9zm3.7 3.9zm.2 5.7zm5.2 38.5zm-12.7 37.5zm-3.5 3.8zm-1.7 5.3zm-13.4 18.5zm1.7 4.8zm-.8 5.3zM91.2 296.2zm-3.5-5.7zm.5-17.3zm.4-5.6zm-18.4-24z"/></g><g id="tremble-1" stroke-width="3.6" display="none"><path d="M56.6 210.1c.3.4 1.4 1.4 1.9 2.2q.9 1.2 1.1 2.5t-.2 2.6c-.3.9-1 1.8-1.1 2.7q-.1 1.4.4 2.6.8 1.1 1.4 2.4t.7 2.5q-.1 1.4-.7 2.7l-.8 2.5m27.9-116.4c-.3.4-1 1.9-1.8 2.7-.7.8-1.9 1.2-2.6 2q-1.1 1.3-1.8 2.9c-.5 1.1-.6 2.3-1.3 3.2q-1 1.5-2.3 2.4c-1 .7-2.7 1.3-3.2 1.5m73.2-60.7c.4 0 1.8.4 2.8 0 .9-.3 1.9-1.8 2.9-2q1.5-.3 2.8.5c.9.5 1.6 1.9 2.4 2.5.9.6 2.2.8 2.7.9m94.7-1.7c-.3.4-1 1.6-1.7 2.2q-1.1.8-2.4 1.3c-.8.3-2.2.2-2.6.3m70.3 46.8c.4.3 1.9 1 2.6 1.7q.8 1.3 1.1 3l.2 3.3q0 1.6.6 3.1.7 1.3 2 2.3c.8.7 2.2 1 2.9 1.7q1.2 1 1.7 2.6c.4.9.3 2 .7 2.9a12 12 0 0 0 1.8 2.6c.6.7 2 1.5 2.4 1.8m10.4 66.1c-.3.4-1.4 1.4-1.8 2.2a7 7 0 0 0-.5 2.8c0 1 .5 2 .4 2.9q0 1.5-.7 2.8c-.4.8-1.3 1.5-1.9 2.3q-.8 1.2-1.2 2.6 0 1.4.3 2.9.3 1.4.4 2.9c0 .9-.2 2.2-.3 2.6M74 248.5c.4.3 1.7 1.1 2.3 1.9q.8 1.3 1.3 2.9c.4 1 .3 2.3.9 3.1s1.9 1.1 2.7 1.8q1.5.9 2.3 2.2c.4.9.2 2.7.3 3.2"/><path stroke-width="4.8" d="M51.9 198.5zm2.5-6zm12-50.3zm4.7-3.8zm22.6-27.8zm6.6-2.1zm72.4-24.1zm64.2 6.3zm53.6.5zM295 102zm19 14.8zm24.2 39zm3.7 4.1zm5 45.1zm-16.8 42.3zm-1.8 5.4zm-12.4 23.8zm-1 5.4zM84 289.8zm.6-17.9zM67 241.5z"/></g><g id="tremble-2" stroke-width="3.6" display="none"><path d="M59.3 215.7c-.3.4-1.3 1.5-1.7 2.3q-.8 1.4-.9 2.6 0 1.4.5 2.6c.3.9 1.1 1.7 1.3 2.6q.3 1.2-.2 2.6c-.2.8-.9 1.6-1.1 2.5q-.5 1.2-.4 2.6.3 1.4.9 2.6l1.1 2.4m26.8-116.1c-.5.2-2 1-2.8 1.7s-1.2 1.9-2 2.6q-1.4 1-3 1.7t-3.2 1.3q-1.4 1-2.4 2.3c-.7 1-1.3 2.7-1.6 3.2m71.7-64.7c.5.2 1.9.5 2.6 1.2s1 2.4 1.8 3a4 4 0 0 0 2.8.7c1-.1 2.2-1.1 3.2-1.3s2.4.2 2.8.2m94.4-2.5c-.4 0-1.8-.2-2.7 0a6 6 0 0 0-2.5 1c-.8.5-1.6 1.5-1.9 1.8m73.8 42.2c0 .5-.3 2.2 0 3.1q.7 1.5 1.9 2.5l2.7 2q1.3 1 2.3 2.2.7 1.3.8 2.9c.2 1.1-.3 2.4-.1 3.4a8 8 0 0 0 1.3 2.8c.5.8 1.5 1.4 2.1 2.2q.8 1.3 1.2 2.8c.2 1 .2 2.6.2 3.1m16.6 63.6c0 .5.4 1.9.3 2.8q-.2 1.5-1.1 2.7c-.5.8-1.5 1.3-1.9 2.2q-.7 1.2-.9 2.6c-.1 1 .3 2 .3 3q0 1.5-.3 2.9-.7 1.2-1.8 2.2l-2 2.2-1.2 2.4M77.7 252.9c0 .5 0 2 .4 3q.6 1.4 1.7 2.6c.6.8 1.8 1.5 2.1 2.4s0 2.2.1 3.3.2 2.3.7 3.1 2.1 1.6 2.5 1.9"/><path stroke-width="4.8" d="M55.3 208zm-.8-9.9zm10.1-45.7zm4.5-8.8zM97 113zm134.3-22.2zm3.4-.9zm51.2-1.7zm0 3.1zm23.3 22.7zm28.9 41.7zm.4 5.7zm-5.9 76.6zm-5 9.1zm-13 18.9zm1.1 10.4zM91.3 299.6zm-3.5-23.1zm.2-5.6zm-19.1-24.1z"/></g><path id="ear-l" fill="#fff" d="M123.4 107.8c-5.2-9.2-3.2-26.4 9.8-28.1 12.8-1.8 17.1 15.3 15.6 24.7L148 116l-16 1"/><path id="ear-r" fill="#fff" d="M276.6 107.8c5.2-9.2 3.2-26.4-9.8-28.1-12.8-1.8-17.1 15.3-15.6 24.7l.8 11.6 16 1"/><path id="tail" fill="#fff" d="m276 314 6-1c10-4 21 4 18.5 14.5-2 7.5-11.5 9.5-19 4.5l-5.5-2" display="none"/><g id="hip-lines" stroke-linecap="butt" stroke-width="14"><path d="m123 334 12.6 2.1"/><path d="m277 334-12.6 2.1"/></g><path id="leg-l" fill="#fff" d="m121 324-.1 9.7c0 6.7-1.5 20 5.4 24.2 11.2 6.8 13.8-15.1 11.4-21.4l.3-12.5"/><path id="leg-r" fill="#fff" d="m279 324 .1 9.7c0 6.7 1.5 20-5.4 24.2-11.2 6.8-13.8-15.1-11.4-21.4L262 324"/><path id="tail-side" fill="#fff" stroke-width="5" d="M273.8 321.6a9.5 9.5 0 1 0 19 0 9.5 9.5 0 1 0-19 0" display="none"/><path id="side-hip" stroke-linecap="butt" d="M254 337.5q-10.1 4.4-21 6.5-12.3 2.4-25 2.5-11.6.1-23-2a108 108 0 0 1-25-7" display="none"/><path id="foot-b" fill="#fff" d="M191 314v31.2a14 14 0 0 0 14 14 14 14 0 0 0 14-14V314Z" display="none"/><path id="foot-f" fill="#fff" d="M191 314v31.2a14 14 0 0 0 14 14 14 14 0 0 0 14-14V314Z" display="none"/><g id="arm-l"><path fill="#fff" stroke="none" d="M99.6 263.3c-.4 9.9-5.1 20.7 1.1 30.2 2.1 3.2 9.7 5.1 12.3 1.2 2.7-4 2.2-13.4 1-17.8-.4-8.9 3-18.9 13-31.9l-23 9Z"/><path d="M99.6 263.3c-.4 9.9-5.1 20.7 1.1 30.2 2.1 3.2 9.7 5.1 12.3 1.2 2.7-4 2.2-13.4 1-17.8-.4-8.9 3-18.9 13-31.9"/></g><g id="arm-r"><path fill="#fff" stroke="none" d="M300.4 263.3c.4 9.9 5.1 20.7-1.1 30.2-2.1 3.2-9.7 5.1-12.3 1.2-2.7-4-2.2-13.4-1-17.8.4-8.9-3-18.9-13-31.9l23 9Z"/><path d="M300.4 263.3c.4 9.9 5.1 20.7-1.1 30.2-2.1 3.2-9.7 5.1-12.3 1.2-2.7-4-2.2-13.4-1-17.8.4-8.9-3-18.9-13-31.9"/></g><defs><path id="fork-c-line" d="M-11 0c3.3.1 8.3 1.9 11-.9s2.4-8.2 3.2-11.7c1.5-6 6.1-12 11.5-15 3.9-2.1 8.4-2.7 12.7-3.4 7-1.1 14-1.7 21-2.6 7.4-1 13.8-4.1 20.6-6.9"/><path id="fork-c-teeth" fill="#fff" stroke-width="3.7" d="m8.6-31.7 1.7-16.1 11.5 11.4Zm20.3-5.5 5.2-15.3 8.7 13.6Zm18.8-1.3 2-16.1L61-42.9Zm-17 12.7-4.3 15.6-9.5-13.2ZM49-27.9l-5.6 15.2-8.3-13.8Zm19.4-5.8L67-17.6 55.3-28.8Z"/><path id="fork-c-tip" fill="#fb9cb9" stroke-width="4.4" d="m63.2-46.4 2.8-1.2q8.3-2.5 15.9-6.7Q76.8-48 72-33.4l-2.7 1.2Z"/><g id="fork-c"><use href="#fork-c-teeth"/><use href="#fork-c-teeth" transform="scale(1 -1)"/><use stroke-width="19.8" href="#fork-c-line"/><use stroke-width="19.8" href="#fork-c-line" transform="scale(1 -1)"/><use href="#fork-c-tip"/><use href="#fork-c-tip" transform="scale(1 -1)"/><use stroke="#fb9cb9" stroke-width="11" href="#fork-c-line"/><use stroke="#fb9cb9" stroke-width="11" href="#fork-c-line" transform="scale(1 -1)"/></g><g id="weapon-art"><path stroke-width="16.6" d="M0 0h272"/><path stroke="#fff" stroke-width="7.8" d="M0 0h91"/><path stroke="#fb9cb9" stroke-linecap="butt" stroke-width="7.8" d="M100 0h172"/><use x="272" href="#fork-c"/></g><g id="weapon-run-art"><path stroke-width="16.6" d="M0 0h252"/><path stroke="#fff" stroke-width="7.8" d="M0 0h67"/><path stroke="#fb9cb9" stroke-linecap="butt" stroke-width="7.8" d="M76 0h176"/><use x="252" href="#fork-c"/></g></defs><path id="body-fill" fill="#fff" stroke="none" d="M113.2 115.2c4.3-2.4 7.3-3.8 10.8-4.2 5-.5 8-4.5 12-5.8 5-1.4 9-1.2 12.8-.8 3.3-1.4 6.8-1.2 10.2-1.8q15.6-2.7 31.4-3.4 22.8-.8 45.4 2.5c4.9.7 10.9.7 15.4 2.7a32 32 0 0 1 12.8.8c4 1.3 7 5.3 12 5.8 3.5.4 6.5 1.8 10.8 4.2 13.8 10 25.2 21.6 33.5 36.6 12.8 23.3 16.7 55.4 4.3 79.6a72 72 0 0 1-28.4 29.1C290 266 286 272 285.6 280c-.3 6-.4 11-.5 15.9-1.3 6-.9 12.2-1.5 18.3-.7 6.7-3 13-4.5 19.5l-16.7 2.7c-5.9 2.8-14.3 3.2-20.8 4.1a263 263 0 0 1-46.9 2.2c-15.1-.6-29.9-.7-44.7-3.6-4.1-.8-8.6-.9-12.4-2.7l-16.7-2.7c-1.5-6.5-3.8-12.8-4.5-19.5-.6-6.1-.2-12.3-1.5-18.3-.1-4.9-.2-9.9-.5-15.9-.4-8-4.4-14-10.6-19.5a72 72 0 0 1-28.4-29.1c-12.4-24.2-8.5-56.3 4.3-79.6 8.3-15 19.7-26.6 33.5-36.6"/><path id="body-side-fill" fill="#fff" stroke="none" d="M75.4 231.4c-12.4-24.2-8.5-56.3 4.3-79.6 8.3-15 19.7-26.6 33.5-36.6 4.3-2.4 7.3-3.8 10.8-4.2 5-.5 8-4.5 12-5.8 5-1.4 9-1.2 12.8-.8 3.3-1.4 6.8-1.2 10.2-1.8q15.6-2.7 31.4-3.4 22.8-.8 45.4 2.5c4.9.7 10.9.7 15.4 2.7a32 32 0 0 1 12.8.8c4 1.3 7 5.3 12 5.8 3.5.4 6.5 1.8 10.8 4.2 13.8 10 25.2 21.6 33.5 36.6 12.8 23.3 16.7 55.4 4.3 79.6Q318 244.5 312 258q-5.2 11.4-10 23c-2.5 5.9-4.2 12.2-7 18a74 74 0 0 1-23 28.5 88 88 0 0 1-18 10l-1.4-3.3-1.6.7-1.7.6-1.7.6-1.6.6-1.7.6-1.7.6-1.7.5-1.7.5-1.7.4-1.7.4-1.8.4-1.7.4-2 .3-2 .4-2 .3-2 .3-2.1.2-2 .2-2 .2-2.1.2-2 .1-2.1.1-2 .1h-5.8l-1.8-.1-1.9-.1-1.9-.1-1.8-.1-1.9-.2-1.9-.2-1.8-.2-1.9-.3-1.8-.3-1.8-.3-2.1-.4-2.1-.5-2.1-.4-2.1-.4-2.1-.5-2-.5-2-.6-2-.6-2-.6-1.9-.7-1.9-.8-1.9-.8-1.5 3.3c-7.3-3.3-14-8.1-20-13.5-5.8-5.2-10.4-11.7-15-18-4.4-6.1-7.8-12.8-12-19-5.8-8.8-12.1-17.3-18-26-6.6-9.8-14.2-19.1-19.6-29.6" display="none"/><path id="socket-l" d="m114.2 277.5.7 18.4"/><path id="socket-r" d="m285.8 277.5-.7 18.4"/><path id="socket-l-top" d="M103.8 260.5c6.2 5.5 10.2 10.5 10.4 17" display="none"/><path id="socket-r-top" d="M296.2 260.5c-6.2 5.5-10.2 10.5-10.4 17" display="none"/><defs><clipPath id="clip-head"><use href="#body-fill"/><use href="#body-side-fill"/></clipPath><clipPath id="clip-face-l"><path d="M-100 0h284v175h1v29h-8.4v296H-100Z" shape-rendering="crispEdges"/></clipPath><clipPath id="clip-face-c"><path d="M184 0h32v175h-1v29h8.4v296h-46.8V204h8.4v-29h-1Z" shape-rendering="crispEdges"/></clipPath><clipPath id="clip-face-r"><path d="M216 0h284v500H223.4V204H215v-29h1Z" shape-rendering="crispEdges"/></clipPath><g id="face-art" stroke-width="6.4"><use id="blush-l" href="#blush"/><use id="blush-r" x="138.8" href="#blush"/><path id="brows" stroke-width="4" d="M156.3 154.7a37 37 0 0 1 11.4-1.3m76 1.3a37 37 0 0 0-11.4-1.3"/><path id="brows-happy" stroke-width="4" d="M149.5 150q8.5-7 17.5-4m83.5 4q-8.5-7-17.5-4" display="none"/><path id="brows-angry" stroke-width="4" d="M151 145q9 2 16.5 8.5M249 145q-9 2-16.5 8.5" display="none"/><path id="brows-wavy" stroke-width="4" d="M146 150c3-5 8-4.5 11 0s7.5 5.5 13 2m84-2c-3-5-8-4.5-11 0s-7.5 5.5-13 2m-36.5-5.5-1 9m14-9 1 9" display="none"/><path id="brows-cry" stroke-width="3.4" d="M161.8 147c.8.2 3.1.3 4.4 1s2.6 2.1 3.6 3.1c1.1 1.1 2 2.5 3 3.2a4 4 0 0 0 2.6 1c1 0 2.2-.7 3-1l1.9-.7m57.9-6.6c-.8.2-3.1.3-4.4 1s-2.6 2.1-3.6 3.1c-1.1 1.1-2 2.5-3 3.2a4 4 0 0 1-2.6 1c-1 0-2.2-.7-3-1l-1.9-.7m-27.7-3.4 1.9 8.5m7.8-8.8 2.4 7.8" display="none"/><g id="tears" display="none"><use x="160" y="180.4" href="#tear-l"/><use x="240" y="180.4" href="#tear-r"/></g><g id="tears-cry" display="none"><use x="160" y="180.4" href="#tear-cry-l"/><use x="240" y="180.4" href="#tear-cry-r"/></g><g id="eyes"><use x="160" y="180.4" href="#eye"/><use x="240" y="180.4" href="#eye"/></g><g id="eyes-focus" display="none"><use x="160" y="180.4" href="#eye-focus"/><use x="240" y="180.4" href="#eye-focus"/></g><g id="eyes-cry" display="none"><use x="160" y="180.4" href="#eye-cry"/><use href="#eye-cry" transform="matrix(-1 0 0 1 240 180.4)"/></g><path id="eyes-happy" stroke-width="7" d="M149.4 183.5q10.6-4.1 21.2 0m58.8 0q10.6-4.1 21.2 0" display="none"/><g id="mouth-w"><path d="M182.4 213a10 10 0 0 0 12.1 4.3c1.5-.5 3.9-3.7 5.5-3.1 1.6-.6 4 2.6 5.5 3.1a10 10 0 0 0 12.1-4.3m-17.6 1v-5"/><ellipse cx="200" cy="207.8" fill="#000" stroke-width="2" rx="4.4" ry="3"/></g><path id="chin" d="M197 228.8h6"/><path id="chin-smile" d="M194.5 227q5.5 5 11 0" display="none"/><path id="chin-open" stroke-width="6.6" d="M194 242.3q6 1.2 12 0" display="none"/><path id="tongue" fill="#fbb4c2" stroke="none" d="M189.7 217.4c2.9 0 5.2-2 6.4-4.5l3.9-.7 3.9.7c1.2 2.5 3.5 4.5 6.4 4.5-.3 5.2-.5 9.7-1.9 12.4-1.5 3.1-4.6 4.4-8.4 4.4s-6.9-1.3-8.4-4.4c-1.4-2.7-1.6-7.2-1.9-12.4" display="none"/><g id="mouth-open" display="none"><path d="M180.5 207.5c2 6.5 7.5 9 12.5 6-.5 10.5 2.5 18 7 18s7.5-7.5 7-18c5 3 10.5.5 12.5-6m-19.5 6v-4"/><ellipse cx="200" cy="208.3" fill="#000" stroke-width="2" rx="4.4" ry="3"/></g><g id="mouth-charge" stroke-width="5.4" display="none"><path d="M182.1 207.6c1.5 3.7 4.1 9.6 7.6 9.8 2.9 0 5.2-2 6.4-4.5m7.8 0c1.2 2.5 3.5 4.5 6.4 4.5 3.5-.2 6.1-6.1 7.6-9.8m-28.2 9.8c.3 5.2.5 9.7 1.9 12.4 1.5 3.1 4.6 4.4 8.4 4.4s6.9-1.3 8.4-4.4c1.4-2.7 1.6-7.2 1.9-12.4"/><circle cx="200" cy="207.6" r="4.2" fill="#000" stroke-width="2"/></g><path id="chin-charge" stroke-width="5" d="M195.6 243.6q4.4 1.5 8.8 0" display="none"/><g id="mouth-cry" display="none"><path stroke-width="5.6" d="M184.6 206.6q4.3 4.7 7.9 4.2c3-.4 5-2.5 7.5-2.5s4.5 2.1 7.5 2.5q3.7.4 7.9-4.2m-24.4 4.2-2.2 5.2m20.2-5.2 2.2 5.2"/><ellipse cx="200" cy="203.5" fill="#000" stroke="none" rx="3.6" ry="3.8"/><path stroke-width="3.2" d="m197.8 215.7-1.8 3.5m6.2-3.5 1.8 3.5"/></g></g></defs><g clip-path="url(#clip-head)"><g id="face"><g id="face-l"><use clip-path="url(#clip-face-l)" href="#face-art" transform="translate(-3.2)"/></g><g id="face-c"><use clip-path="url(#clip-face-c)" href="#face-art"/></g><g id="face-r"><use clip-path="url(#clip-face-r)" href="#face-art" transform="translate(3.2)"/></g></g></g><g id="body-lines"><path d="M148.8 104.4c3.3-1.4 6.8-1.2 10.2-1.8q15.6-2.7 31.4-3.4 22.8-.8 45.4 2.5c4.9.7 10.9.7 15.4 2.7"/><path d="M113.2 115.2a112 112 0 0 0-33.5 36.6c-12.8 23.3-16.7 55.4-4.3 79.6a72 72 0 0 0 28.4 29.1"/><path d="M286.8 115.2c13.8 10 25.2 21.6 33.5 36.6 12.8 23.3 16.7 55.4 4.3 79.6a72 72 0 0 1-28.4 29.1"/><path d="M114.9 295.9c1.3 6 .9 12.2 1.5 18.3.7 6.7 3 13 4.5 19.5"/><path d="M285.1 295.9c-1.3 6-.9 12.2-1.5 18.3-.7 6.7-3 13-4.5 19.5"/><path d="M137.6 336.4c3.8 1.8 8.3 1.9 12.4 2.7 14.8 2.9 29.6 3 44.7 3.6 15.5.6 31.5 0 46.9-2.2 6.5-.9 14.9-1.3 20.8-4.1"/></g><defs><g id="arm-att-m12-art"><path fill="#fff" stroke="none" d="M103.8 260.5c-.7 13-11.8 16.8-9.1 29.6a11 11 0 0 0 13 8.4c6-1.2 9.8-7.1 8.5-13-.2-.9-1.5.5-1.6 1.4l9-.4-1.2-18.1-14-15.6Z"/><path d="M103.8 260.5c-.7 13-11.8 16.8-9.1 29.6a11 11 0 0 0 13 8.4c6-1.2 9.8-7.1 8.5-13-.2-.9-1.5.5-1.6 1.4"/></g><g id="arm-att-m5-art"><path fill="#fff" stroke="none" d="M103.8 260.5c-1 12.7-11.6 15.9-10.4 28.7a11 11 0 0 0 11.9 10c6-.6 10.5-5.9 10-12q-.2-.4-.7-.3l9-.4-1.2-18.1-14-15.6Z"/><path d="M103.8 260.5c-1 12.7-11.6 15.9-10.4 28.7a11 11 0 0 0 11.9 10c6-.6 10.5-5.9 10-12q-.2-.4-.7-.3"/></g><g id="arm-att-8-art"><path fill="#fff" stroke="none" d="M102.7 259.8c-1.3 11.9-9.4 14.3-11.1 26.1a11 11 0 0 0 21.8 3.1c.2-1.8-.5-3.4 1.1-4l9-.4-2.2-18.5-13.9-14Z"/><path d="M102.7 259.8c-1.3 11.9-9.4 14.3-11.1 26.1a11 11 0 0 0 21.8 3.1c.2-1.8-.5-3.4 1.1-4"/></g><g id="arm-att-25-art"><path fill="#fff" stroke="none" d="M100.5 258.4c-1.5 9.7-6.2 12.1-10.3 20.9a11 11 0 0 0 5.3 14.7 11 11 0 0 0 14.6-5.4c1.6-3.4.6-6.8 4.2-7.8l9-.4-4.6-18.6-13.3-10.9Z"/><path d="M100.5 258.4c-1.5 9.7-6.2 12.1-10.3 20.9a11 11 0 0 0 5.3 14.7 11 11 0 0 0 14.6-5.4c1.6-3.4.6-6.8 4.2-7.8"/></g><g id="arm-att-32-art"><path fill="#fff" stroke="none" d="M99.5 257.8c-1.6 8.5-5.4 10.7-10 18.1a11 11 0 0 0 18.7 11.6c2.3-3.7 1.8-7.6 6.1-8.5l9-.4-5.8-18.3-13-10Z"/><path d="M99.5 257.8c-1.6 8.5-5.4 10.7-10 18.1a11 11 0 0 0 18.7 11.6c2.3-3.7 1.8-7.6 6.1-8.5"/></g><g id="arm-att-40-art"><path fill="#fff" stroke="none" d="M98.2 256.9c-1.7 7.1-4.9 8.9-9.6 14.5a11 11 0 0 0 1.4 15.5 11 11 0 0 0 15.5-1.4c3.3-3.9 3.5-8.1 8.7-8.7l8.9-.7-7.1-17.6-12.6-9Z"/><path d="M98.2 256.9c-1.7 7.1-4.9 8.9-9.6 14.5a11 11 0 0 0 1.4 15.5 11 11 0 0 0 15.5-1.4c3.3-3.9 3.5-8.1 8.7-8.7"/></g><g id="arm-att-52-art"><path fill="#fff" stroke="none" d="M96.2 255.4c-2.3 6-5.9 6.7-10.9 10.6a11 11 0 0 0 13.5 17.4c5.9-4.6 7.5-9 14.9-9.6l8.7-2.3-8.8-15.5-12.1-7.8Z"/><path d="M96.2 255.4c-2.3 6-5.9 6.7-10.9 10.6a11 11 0 0 0 13.5 17.4c5.9-4.6 7.5-9 14.9-9.6"/></g><g id="arm-att-60-art"><path fill="#fff" stroke="none" d="M94.7 254.3c-3 5.9-7 6-12.8 9.4a11 11 0 0 0-4 15 11 11 0 0 0 15 4c8.3-4.8 10.6-9.9 20.2-10.6l8.3-3.3-9.4-14.3-11.8-7.3Z"/><path d="M94.7 254.3c-3 5.9-7 6-12.8 9.4a11 11 0 0 0-4 15 11 11 0 0 0 15 4c8.3-4.8 10.6-9.9 20.2-10.6"/></g><g id="arm-att-70-art"><path fill="#fff" stroke="none" d="M92.6 252.6c-3.5 6.4-7.7 7-14.6 9.5a11 11 0 0 0 7.5 20.7c11.6-4.2 14.1-11.5 26.4-13.1l7.8-4.6-11.3-13.5-10.1-5.9Z"/><path d="M92.6 252.6c-3.5 6.4-7.7 7-14.6 9.5a11 11 0 0 0 7.5 20.7c11.6-4.2 14.1-11.5 26.4-13.1"/></g><g id="arm-att-82-art"><path fill="#fff" stroke="none" d="M90.2 250.5c-4.1 5.8-8.5 5.8-15.6 6.8a11 11 0 0 0-9.4 12.4 11 11 0 0 0 12.5 9.3c14.4-2 18-10.1 32.4-12l7.2-5.4-11.4-11.6-9.7-6.2Z"/><path d="M90.2 250.5c-4.1 5.8-8.5 5.8-15.6 6.8a11 11 0 0 0-9.4 12.4 11 11 0 0 0 12.5 9.3c14.4-2 18-10.1 32.4-12"/></g><g id="arm-att-96-art"><path fill="#fff" stroke="none" d="M87.7 248.1c-4.2 4.6-8.2 3.8-14.4 3.2-6-.7-11.4 3.7-12 9.8a11 11 0 0 0 9.7 12.1c15.9 1.6 21.1-7 36.9-8.8l6.5-6.2-11-9.9-9.4-6.5Z"/><path d="M87.7 248.1c-4.2 4.6-8.2 3.8-14.4 3.2-6-.7-11.4 3.7-12 9.8a11 11 0 0 0 9.7 12.1c15.9 1.6 21.1-7 36.9-8.8"/></g><g id="arm-att-122-art"><path fill="#fff" stroke="none" d="M83.8 244c-3.3 1.8-5.5-.4-8.7-2.4a11 11 0 1 0-11.7 18.6c14.4 9 23.5 2.1 40.4.3l4.6-7.7-9-7.5-8.8-7.2Z"/><path d="M83.8 244c-3.3 1.8-5.5-.4-8.7-2.4a11 11 0 1 0-11.7 18.6c14.4 9 23.5 2.1 40.4.3"/></g><g id="arm-wave-85-art"><path fill="#fff" stroke="none" d="M104.9 245.4c-9.4.9-19 .9-28.2-.9a12.5 12.5 0 1 0-4.8 24.5c17.3 3.4 37.2-12.1 41.8 5l9.7-2.6-18.1-22Z"/><path d="M104.9 245.4c-9.4.9-19 .9-28.2-.9a12.5 12.5 0 1 0-4.8 24.5c17.3 3.4 37.2-12.1 41.8 5"/></g><g id="arm-wave-110-art"><path fill="#fff" stroke="none" d="M109.1 247.4a78 78 0 0 1-22.8-12.2 12.5 12.5 0 0 0-15.7 19.5c14.9 12 35-.6 42.4 17.1l9.2-3.8-14.5-16.8Z"/><path d="M109.1 247.4a78 78 0 0 1-22.8-12.2 12.5 12.5 0 0 0-15.7 19.5c14.9 12 35-.6 42.4 17.1"/></g><g id="arm-wave-120-art"><path fill="#fff" stroke="none" d="M110.3 248.3a69 69 0 0 1-19.2-15.5 12.4 12.4 0 0 0-17.6-1.7 12.4 12.4 0 0 0-1.7 17.6c12.4 15 32 4.7 40.7 22.1l8.9-4.5-13.1-14.6Z"/><path d="M110.3 248.3a69 69 0 0 1-19.2-15.5 12.4 12.4 0 0 0-17.6-1.7 12.4 12.4 0 0 0-1.7 17.6c12.4 15 32 4.7 40.7 22.1"/></g><g id="arm-wave-155-art"><path fill="#fff" stroke="none" d="M112.5 251.3a48 48 0 0 1-4.8-19.9 12.5 12.5 0 1 0-25-.1c-.1 19.1 16.3 20.7 27.7 36.1l8-6-9.6-8.4Z"/><path d="M112.5 251.3a48 48 0 0 1-4.8-19.9 12.5 12.5 0 1 0-25-.1c-.1 19.1 16.3 20.7 27.7 36.1"/></g></defs><use id="arm-att-l-m12" display="none" href="#arm-att-m12-art"/><use id="arm-att-r-m12" display="none" href="#arm-att-m12-art" transform="matrix(-1 0 0 1 400 0)"/><use id="arm-att-l-m5" display="none" href="#arm-att-m5-art"/><use id="arm-att-r-m5" display="none" href="#arm-att-m5-art" transform="matrix(-1 0 0 1 400 0)"/><use id="arm-att-l-8" display="none" href="#arm-att-8-art"/><use id="arm-att-r-8" display="none" href="#arm-att-8-art" transform="matrix(-1 0 0 1 400 0)"/><use id="arm-att-l-25" display="none" href="#arm-att-25-art"/><use id="arm-att-r-25" display="none" href="#arm-att-25-art" transform="matrix(-1 0 0 1 400 0)"/><use id="arm-att-l-32" display="none" href="#arm-att-32-art"/><use id="arm-att-r-32" display="none" href="#arm-att-32-art" transform="matrix(-1 0 0 1 400 0)"/><use id="arm-att-l-40" display="none" href="#arm-att-40-art"/><use id="arm-att-r-40" display="none" href="#arm-att-40-art" transform="matrix(-1 0 0 1 400 0)"/><use id="arm-att-l-52" display="none" href="#arm-att-52-art"/><use id="arm-att-r-52" display="none" href="#arm-att-52-art" transform="matrix(-1 0 0 1 400 0)"/><use id="arm-att-l-60" display="none" href="#arm-att-60-art"/><use id="arm-att-r-60" display="none" href="#arm-att-60-art" transform="matrix(-1 0 0 1 400 0)"/><use id="arm-att-l-70" display="none" href="#arm-att-70-art"/><use id="arm-att-r-70" display="none" href="#arm-att-70-art" transform="matrix(-1 0 0 1 400 0)"/><use id="arm-att-l-82" display="none" href="#arm-att-82-art"/><use id="arm-att-r-82" display="none" href="#arm-att-82-art" transform="matrix(-1 0 0 1 400 0)"/><use id="arm-att-l-96" display="none" href="#arm-att-96-art"/><use id="arm-att-r-96" display="none" href="#arm-att-96-art" transform="matrix(-1 0 0 1 400 0)"/><use id="arm-att-l-122" display="none" href="#arm-att-122-art"/><use id="arm-att-r-122" display="none" href="#arm-att-122-art" transform="matrix(-1 0 0 1 400 0)"/><use id="arm-wave-r-85" display="none" href="#arm-wave-85-art" transform="matrix(-1 0 0 1 400 0)"/><use id="arm-wave-r-110" display="none" href="#arm-wave-110-art" transform="matrix(-1 0 0 1 400 0)"/><use id="arm-wave-r-120" display="none" href="#arm-wave-120-art" transform="matrix(-1 0 0 1 400 0)"/><use id="arm-wave-r-155" display="none" href="#arm-wave-155-art" transform="matrix(-1 0 0 1 400 0)"/><g id="body-side-lines" display="none"><path d="M148.8 104.4c3.3-1.4 6.8-1.2 10.2-1.8q15.6-2.7 31.4-3.4 22.8-.8 45.4 2.5c4.9.7 10.9.7 15.4 2.7"/><path d="M286.8 115.2c13.8 10 25.2 21.6 33.5 36.6 12.8 23.3 16.7 55.4 4.3 79.6Q318 244.5 312 258q-5.2 11.4-10 23c-2.5 5.9-4.2 12.2-7 18a74 74 0 0 1-23 28.5 88 88 0 0 1-18 10"/><path d="M113.2 115.2a112 112 0 0 0-33.5 36.6c-12.8 23.3-16.7 55.4-4.3 79.6 5.4 10.5 13 19.8 19.6 29.6 5.9 8.7 12.2 17.2 18 26 4.2 6.2 7.6 12.9 12 19 4.6 6.3 9.2 12.8 15 18 6 5.4 12.7 10.2 20 13.5"/></g><defs><g id="paw-f-0-art"><path fill="#fff" stroke="none" d="M94 259.6c-3.5 10.2-11.5 12.2-11.5 23a12 12 0 1 0 24 0c0-2.1 2.7 1.1 4.6 1.6l7.5-5-7.8-13-9.3-11.7Z"/><path d="M94 259.6c-3.5 10.2-11.5 12.2-11.5 23a12 12 0 1 0 24 0c0-2.1 2.7 1.1 4.6 1.6"/></g><g id="paw-b-0-art"><path fill="#fff" stroke="none" d="M86.4 254.4c-5.6 10.4-16 11.3-16 23.1a12 12 0 1 0 24 0c0-2.5 2 2.9 4 4.4l8.3-3.3-5-14.5-7.1-13.4Z"/><path d="M86.4 254.4c-5.6 10.4-16 11.3-16 23.1a12 12 0 1 0 24 0c0-2.5 2 2.9 4 4.4"/></g><g id="paw-f-15-art"><path fill="#fff" stroke="none" d="M94 259.6c-3.2 8.4-8.3 9.8-10.6 18.5a12 12 0 0 0 23.2 6.2c.5-1.9 2.6-.2 4.5-.1l7.5-5-7.8-13-9.3-11.7Z"/><path d="M94 259.6c-3.2 8.4-8.3 9.8-10.6 18.5a12 12 0 0 0 23.2 6.2c.5-1.9 2.6-.2 4.5-.1"/></g><g id="paw-b-15-art"><path fill="#fff" stroke="none" d="M86.4 254.4c-5.2 8.9-12.7 9.2-15.4 19.2a12 12 0 0 0 23.2 6.2c.5-1.9 2.4 1.3 4.2 2.1l8.3-3.3-5-14.5-7.1-13.4Z"/><path d="M86.4 254.4c-5.2 8.9-12.7 9.2-15.4 19.2a12 12 0 0 0 23.2 6.2c.5-1.9 2.4 1.3 4.2 2.1"/></g><g id="paw-f-30-art"><path fill="#fff" stroke="none" d="M94 259.6c-2.5 6.2-5.1 7.7-8.4 13.6a12 12 0 1 0 20.7 12c1.1-1.8 2.8-.9 4.8-1l7.5-5-7.8-13-9.3-11.7Z"/><path d="M94 259.6c-2.5 6.2-5.1 7.7-8.4 13.6a12 12 0 1 0 20.7 12c1.1-1.8 2.8-.9 4.8-1"/></g><g id="paw-b-30-art"><path fill="#fff" stroke="none" d="M86.4 254.4c-4.5 7.1-9.1 7.6-13.3 14.9a12 12 0 0 0 4.4 16.4 12 12 0 0 0 16.4-4.4c.9-1.7 2.6.1 4.5.6l8.3-3.3-5-14.5-7.1-13.4Z"/><path d="M86.4 254.4c-4.5 7.1-9.1 7.6-13.3 14.9a12 12 0 0 0 4.4 16.4 12 12 0 0 0 16.4-4.4c.9-1.7 2.6.1 4.5.6"/></g><g id="paw-f-45-art"><path fill="#fff" stroke="none" d="M94 259.6a20 20 0 0 1-5.1 8.6 12 12 0 0 0 0 16.9 12 12 0 0 0 16.9 0c1.6-1.6 3.1-.8 5.3-.9l7.5-5-7.8-13-9.3-11.7Z"/><path d="M94 259.6a20 20 0 0 1-5.1 8.6 12 12 0 0 0 0 16.9 12 12 0 0 0 16.9 0c1.6-1.6 3.1-.8 5.3-.9"/></g><g id="paw-b-45-art"><path fill="#fff" stroke="none" d="M86.4 254.4c-3.3 5.1-5.6 6.2-9.9 10.5a12 12 0 1 0 17 17c1.4-1.5 2.8-.4 4.9 0l8.3-3.3-5-14.5-7.1-13.4Z"/><path d="M86.4 254.4c-3.3 5.1-5.6 6.2-9.9 10.5a12 12 0 1 0 17 17c1.4-1.5 2.8-.4 4.9 0"/></g><g id="paw-f-60-art"><path fill="#fff" stroke="none" d="M94 259.6c-.8 2.3-.5 3.9-2.6 5.1A12 12 0 0 0 87 281a12 12 0 0 0 16.4 4.4c2.8-1.6 4.4-1.2 7.7-1.2l7.5-5-7.8-13-9.3-11.7Z"/><path d="M94 259.6c-.8 2.3-.5 3.9-2.6 5.1A12 12 0 0 0 87 281a12 12 0 0 0 16.4 4.4c2.8-1.6 4.4-1.2 7.7-1.2"/></g><g id="paw-b-60-art"><path fill="#fff" stroke="none" d="M86.4 254.4c-1.8 3-2.4 4.6-5.4 6.4a12 12 0 0 0-4.4 16.3 12 12 0 0 0 16.4 4.4c1.9-1.1 3.2-.1 5.4.4l8.3-3.3-5-14.5-7.1-13.4Z"/><path d="M86.4 254.4c-1.8 3-2.4 4.6-5.4 6.4a12 12 0 0 0-4.4 16.3 12 12 0 0 0 16.4 4.4c1.9-1.1 3.2-.1 5.4.4"/></g></defs><use id="paw-f-0" display="none" href="#paw-f-0-art"/><use id="paw-b-0" display="none" href="#paw-b-0-art" transform="matrix(-1 0 0 1 400 0)"/><use id="paw-f-15" display="none" href="#paw-f-15-art"/><use id="paw-b-15" display="none" href="#paw-b-15-art" transform="matrix(-1 0 0 1 400 0)"/><use id="paw-f-30" display="none" href="#paw-f-30-art"/><use id="paw-b-30" display="none" href="#paw-b-30-art" transform="matrix(-1 0 0 1 400 0)"/><use id="paw-f-45" display="none" href="#paw-f-45-art"/><use id="paw-b-45" display="none" href="#paw-b-45-art" transform="matrix(-1 0 0 1 400 0)"/><use id="paw-f-60" display="none" href="#paw-f-60-art"/><use id="paw-b-60" display="none" href="#paw-b-60-art" transform="matrix(-1 0 0 1 400 0)"/><use id="weapon" display="none" href="#weapon-art" transform="rotate(-3 5754.3 -842.9)"/><use id="weapon-run" display="none" href="#weapon-run-art" transform="rotate(-3 5754.3 -842.9)"/><g id="grip-l" display="none"><path fill="#fff" stroke="none" d="M103.8 260.5c-.8 1.6-4.1 5.6-5 9.3a29 29 0 0 0 0 13.1 21 21 0 0 0 7.5 9.3c2.9 2 7 3.1 9.9 2.8a12 12 0 0 0 7.8-4.3c1.8-2.2 2.3-7 2.8-8.4l.7-10.3-8.5-11-11-4Z"/><path d="M103.8 260.5c-.8 1.6-4.1 5.6-5 9.3a29 29 0 0 0 0 13.1 21 21 0 0 0 7.5 9.3c2.9 2 7 3.1 9.9 2.8a12 12 0 0 0 7.8-4.3c1.8-2.2 2.3-7 2.8-8.4"/><path stroke-width="6.6" d="M118.1 272c.8.6 3.5 1.7 5 3.4 1.4 1.7 3.1 5.7 3.7 6.9"/></g><g id="grip-r" display="none"><path fill="#fff" stroke="none" d="M296.2 260.5c-1.1-2.1-4.1-2.6-6.5-3.1q-3.7-.7-7.8 0c-2.6.4-5.8 1-7.8 2.5s-3.5 4.1-4 6.5.6 5.4 1.2 7.8q.9 3.6 2.3 6.8c1 2.1 1.6 4.8 3.6 5.9s5.7 1.7 8.4.7a17 17 0 0 0 8.1-6.6c1.8-3 2.4-7.8 2.8-11.2s.8-7.2-.3-9.3"/><path d="M296.2 260.5c-1.1-.5-4.1-2.6-6.5-3.1q-3.7-.7-7.8 0c-2.6.4-5.8 1-7.8 2.5a11 11 0 0 0-4 6.5c-.5 2.4-.5 5.7 1.2 7.8s7.5 4.1 9 5"/><path d="M277.2 286.9c1.4.1 5.7 1.6 8.4.7a17 17 0 0 0 8.1-6.6c1.8-2.9 2.4-7.7 2.8-11.2s-.2-7.7-.3-9.3"/></g><g id="grip-run-l" display="none"><path fill="#fff" stroke="none" d="M103.8 260.5c-1 1.4-4.8 5.5-6.2 8.3q-2.1 4.4-2.7 8.9t-.3 9a20 20 0 0 0 11.9 17.2q3 1.1 5.9.6 2.3-.4 3.9-1.6l3.9-4.9 2-4.8 1.2-5.9-.6-5.1-1.5-4.5-2-2.6L112 262Z"/><path d="M103.8 260.5c-1 1.4-4.8 5.5-6.2 8.3q-2.1 4.4-2.7 8.9t-.3 9a20 20 0 0 0 11.9 17.2q3 1.1 5.9.6 2.3-.4 3.9-1.6"/><path stroke-width="6.4" d="M119.3 275.1c.3.4 1.5 1.5 2 2.6q1 2 1.5 4.5.7 2.3.6 5.1c-.1 1.8-.6 4.1-1.2 5.9q-.8 2.6-2 4.8c-.8 1.5-2.6 3.6-3.9 4.9"/></g><circle id="paw-r" r="16" fill="#fff" display="none"/><g id="book" stroke-width="5" display="none" transform="translate(200 274)"><path fill="#83c46e" stroke-width="3" d="M-39-36h9v14h-9z"/><path fill="#9ccffb" stroke-width="3" d="M14-27h8v13h-8z"/><path fill="#fb6576" stroke-width="3" d="M37-37h9v14h-9z"/><path fill="#fff" d="M-63-30 0-17l63-13v9L0-8l-63-13Z"/><path id="page-turn-1" fill="#fff" d="M0-17c14-13 32-25 52-30l8 9C40-30 18-20 0-12Z" display="none"/><path id="page-turn-2" fill="#fff" d="M-1-16c2-12 7-22 16-29l8 3C15-33 9-23 5-13Z" display="none"/><path id="page-turn-3" fill="#fff" d="M0-17c-15-11-34-20-54-24l-6 8c20 6 42 14 60 21Z" display="none"/><path fill="#d4f7a6" d="m0-14-64-13v63l64 9Zm0 0 64-13v63L0 45Z"/><path stroke-width="4" d="M-4-12v54m9-54v54"/><path stroke-width="3.6" d="M18 4c4-4 8-4 11-1s7 3 11-1M18 18c4-4 8-4 11-1s7 3 11-1"/><g id="book-arm-l" stroke-width="7"><path fill="#fff" stroke="none" d="M-66 15.5q9-.9 18 0c7 1 11.5 5.5 11.5 12S-41 38-48 38s-15-.5-22-4l-1-10Z"/><path d="M-86 4c1 13 6 24 16 30 7 3.5 15 4 22 4s11.5-4 11.5-10.5-4.5-11-11.5-12q-9-.9-18 0"/></g><use id="book-arm-r" href="#book-arm-l" transform="scale(-1 1)"/></g></g></svg>